# xmcd CD database file
#
# Track frame offsets:
#	150
#	10360
#	24437
#	38962
#	49330
#	59685
#	72170
#	85720
#	98590
#	110407
#	120975
#	133227
#	143827
#	157960
#
# Disc length: 2252 seconds
#
# Revision: 1
# Processed by: cddbd v1.4PL0 Copyright (c) Steve Scherf et al.
# Submitted via: CDex 1.50
#
DISCID=b908ca0e
DTITLE=Dean Martin - Collection: That's amore
DYEAR=1900
DGENRE=Blues
TTITLE0=Memories are made of this
TTITLE1=That's amore
TTITLE2=Come back to Sorento
TTITLE3=Cha, cha, cha, d'amour
TTITLE4=Mambo Italiano
TTITLE5=Young and foolish
TTITLE6=Volare
TTITLE7=The man who plays the mandolino
TTITLE8=Hey, brother pour the wine
TTITLE9=Buona sera
TTITLE10=Return to me
TTITLE11=Baby, it's cold outside
TTITLE12=Goodnight sweatheart
TTITLE13=Innamorata
EXTD=
EXTT0=
EXTT1=
EXTT2=
EXTT3=
EXTT4=
EXTT5=
EXTT6=
EXTT7=
EXTT8=
EXTT9=
EXTT10=
EXTT11=
EXTT12=
EXTT13=
PLAYORDER=
